<svg width="327" height="104" viewBox="0 0 327 104" fill="none" xmlns="http://www.w3.org/2000/svg">
<path d="M78.9007 24.4045C77.7765 21.6451 76.1412 20.0098 74.4038 18.2724C69.6003 13.3667 63.8769 11.2204 58.1536 9.17636C57.847 9.07415 55.7007 8.25654 51.306 6.7235C44.765 4.37284 45.0716 4.57723 44.8672 4.47503C42.1078 3.3508 37.9174 1.51116 33.3183 0.284729C32.5007 0.080324 31.0699 -0.32849 30.3544 0.489131C29.639 1.20455 29.9456 2.53318 30.0478 3.0442C30.4567 4.27063 30.9677 5.59928 31.4787 6.82571C33.7271 12.6513 36.2822 17.8636 39.0417 22.4627L46.5025 36.3623C55.2919 47.7068 69.3959 48.7288 75.7324 42.9032C80.0249 38.8151 81.558 30.6389 78.9007 24.4045Z" fill="url(#paint0_linear_1047_76363)"/>
<path d="M116 30.128C116 30.3324 116 30.8434 115.694 31.2522C115.182 31.9677 114.058 32.1721 112.832 31.7633C110.992 31.0478 109.357 30.4346 107.824 29.9236C105.575 29.106 104.962 28.6972 104.145 29.3104C103.327 29.9236 104.042 33.0919 104.145 33.5007C104.145 33.8073 104.247 34.0117 104.349 34.3183C104.349 34.5227 104.451 34.9315 104.553 35.2381C104.758 35.8514 106.393 40.6549 106.7 42.9033C106.7 42.9033 106.7 43.6188 106.802 44.0276C106.802 44.0276 106.802 44.0276 106.802 44.1298C106.802 44.232 106.802 44.3342 106.802 44.4364C106.802 44.5386 106.802 44.6408 106.802 44.743C106.802 45.0496 106.904 45.3562 106.904 45.765C107.211 49.6487 108.539 63.9571 99.2389 76.017C97.3992 78.3676 92.5957 84.7042 85.1349 87.3615C80.9446 88.8945 76.3455 90.0188 76.3455 90.0188C72.4618 91.0408 71.2354 91.0408 68.6803 92.165C65.8186 93.3914 63.7746 94.8223 62.0371 96.1509C56.1094 100.546 54.4741 103.918 53.2477 103.407C51.6125 102.692 52.7367 96.6619 53.2477 93.8002C54.9852 84.1932 58.1534 77.3456 58.5622 76.3236C58.5622 76.3236 58.5622 76.3236 58.5622 76.2214C62.4459 67.432 66.4318 58.7447 70.3155 49.9553C70.4178 49.6487 70.6222 49.3421 70.8266 48.9333C72.4618 45.3562 72.2574 42.0857 72.4618 41.3703C74.5059 33.2963 76.2433 26.6531 81.2512 20.7254C83.3975 18.1703 88.3032 12.3447 95.764 11.7315C98.1147 11.5271 100.159 11.9359 101.487 12.2425C103.838 12.958 105.269 14.0822 105.984 14.7976C107.211 16.024 107.824 17.2505 108.233 18.0681C109.255 20.1122 108.948 20.7254 110.072 22.4628C110.379 22.9738 110.992 23.6892 112.219 25.0179C112.219 25.0179 113.036 25.9377 114.671 27.8795C115.489 28.6972 116 29.3104 116 30.128Z" fill="url(#paint1_linear_1047_76363)"/>
<path d="M89.8361 55.0654C90.9604 53.4301 90.8582 51.1817 89.4273 49.7508C85.3392 45.4583 78.4916 39.735 68.9868 36.2601C60.504 33.0918 53.2476 33.0918 51.7145 33.0918C49.3639 33.0918 45.889 33.0918 41.5965 34.216C38.5304 34.9315 37.2018 35.7491 29.0256 39.0196C29.0256 39.0196 25.3463 40.5526 21.2582 42.0856C13.7974 45.0495 11.4467 45.8671 7.563 47.809C3.06609 50.0574 0 50.875 0 52.9191C0.102203 55.0654 3.3727 54.1456 8.58503 54.7588C8.58503 54.7588 16.8634 55.7808 24.6308 57.7226C31.6828 59.5623 36.6908 62.2196 40.9833 64.5702C51.6123 70.3958 51.6123 73.2574 57.2335 74.2795C62.1392 75.0971 69.7022 72.7464 76.7542 68.1473C82.6819 64.0592 86.9744 59.2557 89.8361 55.0654Z" fill="url(#paint2_linear_1047_76363)"/>
<path d="M137.674 82.3013C133.553 82.3064 130.252 81.5357 127.77 79.9894C125.289 78.412 124.047 76.0119 124.043 72.789C124.041 71.0846 124.334 69.7827 124.921 68.8833C125.509 67.9839 126.376 67.5335 127.523 67.532C128.359 67.531 129.041 67.7471 129.569 68.1803C130.096 68.6135 130.36 69.1709 130.361 69.8527C130.362 70.4725 130.316 71.0149 130.224 71.4798C130.224 71.6038 130.193 71.8207 130.131 72.1307C130.101 72.4406 130.086 72.766 130.086 73.1069C130.088 74.5014 130.786 75.5387 132.182 76.2187C133.608 76.8987 135.592 77.2371 138.133 77.234C140.767 77.2307 142.827 76.7633 144.314 75.8318C145.8 74.8693 146.542 73.5358 146.54 71.8314C146.538 70.7778 146.196 69.8795 145.514 69.1367C144.831 68.3628 143.978 67.7286 142.955 67.234C141.932 66.7085 140.49 66.075 138.629 65.3335C136.242 64.4068 134.289 63.5261 132.769 62.6912C131.281 61.8564 129.993 60.7269 128.907 59.3027C127.851 57.8475 127.322 56.0508 127.32 53.9126C127.317 51.6814 127.903 49.6973 129.079 47.9605C130.285 46.2236 132.003 44.8734 134.233 43.91C136.494 42.9466 139.143 42.4629 142.18 42.4592C144.443 42.4564 146.519 42.7947 148.41 43.4741C150.302 44.1225 151.806 45.1278 152.923 46.4899C154.071 47.852 154.647 49.5247 154.649 51.508C154.652 53.4603 154.359 54.9327 153.771 55.925C153.184 56.9174 152.317 57.4143 151.17 57.4158C150.365 57.4168 149.682 57.1697 149.124 56.6746C148.597 56.1794 148.332 55.5909 148.332 54.9092C148.331 54.3204 148.377 53.778 148.469 53.2821C148.561 52.3523 148.607 51.7634 148.606 51.5155C148.605 50.214 147.968 49.2231 146.697 48.5429C145.425 47.8627 143.845 47.5238 141.954 47.5262C139.289 47.5295 137.244 48.0278 135.82 49.0213C134.427 49.9836 133.731 51.348 133.734 53.1144C133.735 54.292 134.093 55.2987 134.806 56.1345C135.551 56.9703 136.466 57.6664 137.552 58.2229C138.637 58.7793 140.156 59.4437 142.109 60.216C144.466 61.1737 146.357 62.0391 147.784 62.8121C149.21 63.585 150.42 64.6371 151.413 65.9684C152.438 67.2997 152.951 68.9415 152.953 70.8938C152.958 74.5505 151.567 77.3722 148.78 79.359C146.025 81.3147 142.323 82.2955 137.674 82.3013Z" fill="#2C2930"/>
<path d="M181.744 71.5089C182.147 71.5084 182.457 71.6939 182.675 72.0655C182.923 72.4371 183.048 72.9482 183.048 73.599C183.05 74.8386 182.757 75.7996 182.169 76.4821C180.838 78.1261 179.399 79.476 177.851 80.5315C176.334 81.587 174.599 82.116 172.647 82.1184C171.004 82.1205 169.671 81.5333 168.647 80.357C166.882 81.5058 165.039 82.0969 163.117 82.1302C162.722 88.1116 161.814 93.102 160.393 97.1014C158.973 101.132 156.884 103.149 154.126 103.152C152.452 103.154 151.212 102.551 150.405 101.344C149.598 100.136 149.193 98.4633 149.19 96.325C149.186 93.2881 149.879 89.739 151.268 85.6777C152.658 81.6474 154.806 77.1978 157.713 72.3289C157.708 67.8045 157.673 64.6591 157.608 62.8928C157.576 61.9942 157.932 61.281 158.675 60.7533C159.418 60.2255 160.347 59.961 161.463 59.9596C162.114 59.9588 162.579 60.0976 162.858 60.3762C163.168 60.6237 163.339 61.1348 163.371 61.9095C163.372 62.6843 163.388 63.2575 163.42 63.6294C164.41 62.3886 165.385 61.5042 166.345 60.9762C167.305 60.4172 168.327 60.137 169.412 60.1357C171.147 60.1335 172.558 60.829 173.645 62.2222C174.762 63.6153 175.322 65.443 175.325 67.7052C175.327 69.3476 175.065 70.9438 174.54 72.4939C174.016 74.0441 173.289 75.455 172.361 76.7267C173.012 76.9118 173.554 77.0041 173.988 77.0035C175.011 77.0023 175.987 76.6292 176.915 75.8843C177.844 75.1394 179.036 73.8984 180.49 72.1612C180.861 71.7269 181.279 71.5094 181.744 71.5089ZM163.344 77.6675C164.46 77.4182 165.481 76.8127 166.41 75.8509C167.369 74.858 168.127 73.6485 168.683 72.2223C169.239 70.7651 169.516 69.2463 169.514 67.6659C169.513 66.7362 169.326 66.0392 168.954 65.5748C168.581 65.0794 168.085 64.8322 167.465 64.8329C166.35 64.8343 165.003 66.0136 163.426 68.3707C163.396 69.7342 163.383 71.7331 163.387 74.3671C163.388 75.7926 163.374 76.8928 163.344 77.6675ZM154.492 98.5962C155.329 98.5951 156.024 96.7659 156.577 93.1085C157.13 89.4821 157.481 84.9572 157.629 79.534C156.3 82.6345 155.25 85.5953 154.479 88.4162C153.708 91.2372 153.324 93.6084 153.326 95.5297C153.327 96.5213 153.452 97.2804 153.701 97.8069C153.918 98.3335 154.182 98.5965 154.492 98.5962Z" fill="#2C2930"/>
<path d="M200.033 71.4862C200.436 71.4857 200.746 71.6712 200.963 72.0428C201.212 72.4144 201.336 72.9255 201.337 73.5763C201.339 74.8159 201.045 75.7769 200.457 76.4594C199.313 77.8553 197.687 79.1434 195.581 80.3236C193.507 81.5037 191.276 82.0953 188.89 82.0983C185.636 82.1023 183.109 81.2222 181.31 79.4581C179.51 77.6939 178.609 75.2779 178.605 72.21C178.602 70.0718 179.049 68.0879 179.946 66.2584C180.842 64.398 182.08 62.9244 183.659 61.8379C185.269 60.7513 187.081 60.2067 189.095 60.2042C190.893 60.202 192.334 60.7425 193.42 61.8258C194.506 62.878 195.05 64.3184 195.053 66.1467C195.055 68.285 194.283 70.1298 192.735 71.6812C191.219 73.2015 188.633 74.4133 184.977 75.3165C185.753 76.741 187.226 77.452 189.396 77.4493C190.79 77.4475 192.37 76.9652 194.135 76.0024C195.931 75.0085 197.479 73.7205 198.779 72.1385C199.15 71.7042 199.568 71.4867 200.033 71.4862ZM188.311 64.7606C187.164 64.762 186.189 65.4295 185.385 66.763C184.612 68.0965 184.226 69.7084 184.229 71.5987L184.229 71.6917C186.057 71.2556 187.497 70.603 188.549 69.734C189.602 68.865 190.127 67.8572 190.126 66.7106C190.125 66.1218 189.954 65.6572 189.613 65.3168C189.303 64.9453 188.869 64.7599 188.311 64.7606Z" fill="#2C2930"/>
<path d="M203.053 82.0807C201.132 82.0831 199.597 81.3877 198.449 79.9946C197.301 78.6016 196.725 76.7739 196.722 74.5117C196.719 72.0326 197.29 69.6922 198.433 67.4905C199.577 65.2579 201.093 63.4742 202.982 62.1393C204.902 60.7734 206.931 60.0891 209.069 60.0865C209.751 60.0856 210.2 60.2245 210.417 60.5031C210.666 60.7507 210.868 61.2153 211.024 61.8969C211.674 61.7721 212.356 61.7093 213.069 61.7084C214.587 61.7065 215.347 62.2479 215.348 63.3325C215.349 63.9833 215.119 65.533 214.657 67.9817C213.948 71.5464 213.595 74.0259 213.597 75.4204C213.597 75.8853 213.706 76.257 213.924 76.5356C214.172 76.8142 214.482 76.9533 214.854 76.9528C215.443 76.9521 216.155 76.5794 216.991 75.8346C217.826 75.0588 218.956 73.8179 220.379 72.1117C220.751 71.6774 221.169 71.4599 221.634 71.4594C222.037 71.4589 222.347 71.6444 222.564 72.016C222.812 72.3876 222.937 72.8987 222.938 73.5495C222.939 74.7891 222.646 75.7501 222.058 76.4326C220.79 78.0146 219.443 79.3488 218.019 80.4352C216.595 81.5216 215.217 82.0656 213.884 82.0672C212.861 82.0685 211.916 81.7288 211.047 81.0481C210.21 80.3364 209.573 79.3765 209.138 78.1685C207.53 80.7736 205.502 82.0776 203.053 82.0807ZM204.721 77.3838C205.403 77.3829 206.053 76.9793 206.672 76.1728C207.291 75.3663 207.739 74.2966 208.016 72.9637L209.725 64.4086C208.424 64.4412 207.216 64.9385 206.101 65.9006C205.018 66.8316 204.152 68.0722 203.503 69.6225C202.854 71.1728 202.531 72.8156 202.533 74.551C202.534 75.5116 202.721 76.2242 203.093 76.6885C203.497 77.1529 204.039 77.3846 204.721 77.3838Z" fill="#2C2930"/>
<path d="M246.025 71.4291C246.428 71.4286 246.738 71.6141 246.955 71.9857C247.204 72.3573 247.328 72.8685 247.329 73.5192C247.331 74.7588 247.037 75.7198 246.449 76.4023C245.057 78.1084 243.649 79.4737 242.224 80.4981C240.8 81.5225 239.112 82.0359 237.16 82.0384C234.773 82.0413 232.851 81.362 231.393 80.0002C229.935 78.6385 229.204 76.8266 229.202 74.5644C229.2 73.3558 229.819 72.4873 231.058 71.959C232.421 71.3685 233.396 70.7475 233.984 70.096C234.572 69.4135 234.865 68.5919 234.864 67.6313C234.863 67.0735 234.739 66.6553 234.491 66.3767C234.273 66.0981 233.994 65.959 233.653 65.9594C232.817 65.9604 231.888 66.5659 230.867 67.7757C229.876 68.9855 228.949 70.5516 228.083 72.474C227.218 74.3654 226.539 76.3186 226.045 78.3335C225.706 79.7904 225.305 80.7825 224.841 81.3099C224.407 81.8063 223.71 82.0551 222.75 82.0562C221.789 82.0574 221.076 81.7174 220.61 81.0363C220.175 80.3241 219.88 79.2398 219.723 77.7835C219.566 76.3272 219.486 74.1891 219.483 71.3691C219.477 66.5967 219.951 61.6224 220.905 56.446C221.89 51.2696 223.326 46.9294 225.212 43.4253C227.129 39.8901 229.42 38.1209 232.085 38.1176C233.51 38.1158 234.658 38.7342 235.527 39.9727C236.427 41.1801 236.878 42.76 236.881 44.7123C236.885 47.8422 235.975 51.0972 234.15 54.4773C232.326 57.8264 229.356 61.7502 225.24 66.2487C225.149 67.8603 225.105 69.5182 225.107 71.2226C226.59 67.3472 228.291 64.5405 230.21 62.8028C232.129 61.034 233.925 60.1486 235.598 60.1465C237.148 60.1446 238.388 60.6699 239.319 61.7223C240.281 62.7748 240.763 64.0757 240.765 65.6252C240.767 67.3296 240.335 68.895 239.469 70.3216C238.603 71.7482 237.117 73.0206 235.012 74.1388C235.137 74.9754 235.509 75.6567 236.13 76.1827C236.781 76.6777 237.556 76.9247 238.455 76.9236C239.415 76.9224 240.345 76.5493 241.242 75.8045C242.14 75.0596 243.316 73.8186 244.771 72.0814C245.142 71.6471 245.56 71.4297 246.025 71.4291ZM231.114 42.7207C230.557 42.7214 229.938 43.5279 229.258 45.1401C228.578 46.7214 227.915 48.876 227.267 51.6038C226.651 54.3007 226.143 57.2453 225.744 60.4376C227.663 58.173 229.24 55.7075 230.476 53.0409C231.744 50.3742 232.376 47.9563 232.373 45.7871C232.372 44.7954 232.263 44.0363 232.045 43.5098C231.828 42.9832 231.517 42.7202 231.114 42.7207Z" fill="#2C2930"/>
<path d="M248.938 82.0238C247.172 82.0259 245.73 81.3305 244.613 79.9374C243.526 78.5442 242.982 76.7165 242.979 74.4543C242.976 71.9752 243.546 69.6348 244.69 67.4332C245.834 65.2005 247.35 63.4168 249.239 62.0819C251.158 60.716 253.187 60.0317 255.326 60.0291C256.007 60.0282 256.457 60.1671 256.674 60.4457C256.922 60.6933 257.124 61.1579 257.28 61.8395C257.869 61.7148 258.519 61.652 259.232 61.6511C259.976 61.6502 260.549 61.8354 260.953 62.2068C261.356 62.5782 261.558 63.1047 261.559 63.7865C261.56 64.4992 261.407 65.739 261.099 67.5058C260.76 69.3965 260.499 71.2097 260.315 72.9453C260.132 74.65 260.041 76.5714 260.044 78.7096C260.045 79.8872 259.798 80.7397 259.303 81.2672C258.839 81.7636 258.064 82.0124 256.98 82.0138C255.926 82.0151 255.136 81.7682 254.608 81.273C254.112 80.7468 253.863 79.9104 253.861 78.7638L253.907 78.02C252.95 80.6863 251.293 82.0208 248.938 82.0238ZM250.745 77.3267C251.613 77.3256 252.402 76.7203 253.114 75.5109C253.825 74.3014 254.457 72.1469 255.011 69.0473L255.889 64.3513C254.618 64.3839 253.441 64.8812 252.358 65.8432C251.274 66.7742 250.408 68.0149 249.759 69.5651C249.111 71.1154 248.787 72.7582 248.789 74.4936C248.79 75.4233 248.962 76.1358 249.303 76.6312C249.676 77.0956 250.156 77.3274 250.745 77.3267Z" fill="#2C2930"/>
<path d="M289.594 67.4704C289.996 67.4699 290.307 67.671 290.524 68.0735C290.741 68.4761 290.851 68.9873 290.851 69.6071C290.852 70.3818 290.745 70.9862 290.528 71.4204C290.312 71.8235 289.971 72.1028 289.507 72.2583C287.648 72.9114 285.603 73.2858 283.372 73.3816C282.756 75.9544 281.581 78.0321 279.847 79.6147C278.145 81.1973 276.255 81.9899 274.179 81.9924C271.049 81.9963 268.77 80.8061 267.342 78.4217C265.913 76.0373 265.196 72.5829 265.19 68.0585C265.185 64.0609 265.676 59.7218 266.662 55.0412C267.648 50.3297 269.084 46.3303 270.97 43.0431C272.887 39.7249 275.163 38.0642 277.797 38.0609C279.222 38.0591 280.37 38.6775 281.239 39.916C282.108 41.1235 282.544 42.7034 282.546 44.6557C282.549 47.1968 282.072 49.723 281.115 52.2343C280.157 54.7456 278.564 57.3816 276.337 60.1424C278.413 60.2948 280.103 61.1604 281.407 62.7392C282.71 64.2871 283.487 66.2074 283.738 68.5003C285.194 68.4055 286.929 68.0935 288.943 67.5642C289.129 67.502 289.346 67.4707 289.594 67.4704ZM276.733 42.6641C276.114 42.6649 275.433 43.5954 274.692 45.4556C273.981 47.2849 273.318 49.7803 272.702 52.942C272.086 56.1036 271.626 59.5595 271.32 63.3096C273.361 59.5573 274.984 56.255 276.189 53.4025C277.425 50.519 278.041 47.9616 278.039 45.7304C278.037 44.7387 277.913 43.9797 277.664 43.4532C277.446 42.9266 277.136 42.6636 276.733 42.6641ZM274.359 77.0649C275.32 77.0638 276.171 76.6598 276.914 75.8532C277.657 75.0466 278.151 73.8839 278.397 72.3651C277.436 71.7155 276.691 70.8642 276.163 69.8113C275.666 68.7582 275.416 67.6429 275.415 66.4654C275.414 66.0315 275.476 65.4426 275.599 64.6988L275.459 64.6989C274.189 64.7005 273.12 65.3371 272.254 66.6087C271.419 67.8493 271.003 69.5233 271.005 71.6305C271.008 73.3969 271.335 74.7445 271.986 75.6734C272.669 76.6022 273.46 77.0661 274.359 77.0649Z" fill="#2C2930"/>
<path d="M292.571 81.9696C290.649 81.972 289.114 81.2767 287.966 79.8836C286.818 78.4905 286.242 76.6628 286.239 74.4006C286.236 71.9215 286.807 69.5811 287.951 67.3795C289.094 65.1468 290.611 63.3631 292.499 62.0282C294.419 60.6623 296.448 59.978 298.586 59.9754C299.268 59.9745 299.717 60.1134 299.935 60.3921C300.183 60.6397 300.385 61.1043 300.541 61.7858C301.191 61.6611 301.873 61.5982 302.586 61.5973C304.104 61.5955 304.864 62.1368 304.865 63.2215C304.866 63.8722 304.636 65.422 304.174 67.8707C303.466 71.4353 303.112 73.9149 303.114 75.3094C303.115 75.7742 303.224 76.1459 303.441 76.4246C303.689 76.7032 303.999 76.8422 304.371 76.8418C304.96 76.841 305.672 76.4683 306.508 75.7235C307.344 74.9478 308.473 73.7068 309.897 72.0006C310.268 71.5663 310.686 71.3489 311.151 71.3483C311.554 71.3478 311.864 71.5333 312.081 71.9049C312.33 72.2765 312.454 72.7877 312.455 73.4384C312.457 74.678 312.163 75.639 311.575 76.3215C310.307 77.9035 308.96 79.2377 307.536 80.3241C306.112 81.4105 304.734 81.9545 303.401 81.9562C302.379 81.9575 301.433 81.6177 300.564 80.9371C299.727 80.2254 299.09 79.2655 298.655 78.0574C297.047 80.6625 295.019 81.9666 292.571 81.9696ZM294.238 77.2727C294.92 77.2719 295.57 76.8682 296.189 76.0617C296.808 75.2552 297.256 74.1855 297.533 72.8527L299.242 64.2976C297.941 64.3302 296.733 64.8275 295.618 65.7895C294.535 66.7205 293.669 67.9612 293.02 69.5114C292.371 71.0617 292.048 72.7045 292.05 74.4399C292.051 75.4006 292.238 76.1131 292.61 76.5775C293.014 77.0418 293.556 77.2736 294.238 77.2727Z" fill="#2C2930"/>
<path d="M324.93 60.0357C325.643 60.0348 326.138 60.1271 326.418 60.3127C326.697 60.4983 326.837 60.808 326.837 61.2419C326.838 61.9856 326.438 64.6357 325.638 69.1921C324.931 73.5624 324.516 76.1505 324.393 76.9564C323.256 84.922 321.684 91.2302 319.675 95.8811C317.667 100.532 314.989 102.859 311.642 102.864C310.062 102.866 308.775 102.371 307.782 101.381C306.789 100.421 306.292 99.1516 306.29 97.5711C306.288 96.1146 306.612 94.6267 307.261 93.1075C307.94 91.5882 309.178 89.8357 310.973 87.8502C312.799 85.8956 315.368 83.6457 318.681 81.1005L318.819 80.0312C319.034 78.8844 319.28 77.2416 319.556 75.103C318.939 77.335 318.074 79.0405 316.96 80.2195C315.845 81.3674 314.669 81.9422 313.429 81.9437C312.034 81.9455 310.887 81.3116 309.987 80.0422C309.118 78.7417 308.682 77.1308 308.679 75.2095C308.676 72.8853 308.829 70.7624 309.136 68.8407C309.444 66.888 309.952 64.8266 310.663 62.6565C310.971 61.7264 311.404 61.0596 311.962 60.656C312.519 60.2525 313.402 60.05 314.61 60.0485C315.292 60.0476 315.757 60.1555 316.005 60.3721C316.285 60.5887 316.424 60.9139 316.425 61.3478C316.425 61.5957 316.256 62.4326 315.917 63.8585C315.608 65.0055 315.362 66.0439 315.177 66.9738C314.93 68.2447 314.715 69.469 314.531 70.6468C314.346 71.7937 314.254 72.739 314.255 73.4827C314.257 74.6603 314.583 75.2487 315.234 75.2479C315.698 75.2473 316.271 74.7817 316.952 73.8512C317.663 72.9207 318.405 71.5097 319.178 69.6184C319.981 67.7271 320.753 65.402 321.493 62.643C321.74 61.713 322.111 61.0463 322.606 60.6428C323.133 60.2393 323.907 60.0369 324.93 60.0357ZM312.148 98.3541C312.923 98.3531 313.789 97.4533 314.748 95.6548C315.706 93.8562 316.663 90.8646 317.618 86.6799C315.235 88.6971 313.502 90.5276 312.419 92.1714C311.367 93.8461 310.843 95.3033 310.844 96.5428C310.845 97.0696 310.938 97.5034 311.125 97.844C311.342 98.1846 311.683 98.3546 312.148 98.3541Z" fill="#2C2930"/>
<defs>
<linearGradient id="paint0_linear_1047_76363" x1="31.8457" y1="-1.11811" x2="75.7514" y2="42.7875" gradientUnits="userSpaceOnUse">
<stop stop-color="#879DE1"/>
<stop offset="0.3605" stop-color="#8A88E1"/>
<stop offset="0.8669" stop-color="#C97DE3"/>
</linearGradient>
<linearGradient id="paint1_linear_1047_76363" x1="47.9135" y1="98.959" x2="113.496" y2="20.8013" gradientUnits="userSpaceOnUse">
<stop stop-color="#CF7AE9"/>
<stop offset="0.3154" stop-color="#C29FE9"/>
<stop offset="0.6455" stop-color="#899AE7"/>
</linearGradient>
<linearGradient id="paint2_linear_1047_76363" x1="-0.0288211" y1="53.7211" x2="90.581" y2="53.7211" gradientUnits="userSpaceOnUse">
<stop stop-color="#C97DE3"/>
<stop offset="0.4949" stop-color="#9790E1"/>
<stop offset="1" stop-color="#879DE1"/>
</linearGradient>
</defs>
</svg>
